<svg xmlns="http://www.w3.org/2000/svg" width="80" height="80" viewBox="0 0 80 80" fill="none">
<path fill-rule="evenodd" clip-rule="evenodd" d="M40 10C31.852 10 30.832 10.034 27.632 10.18C24.438 10.326 22.256 10.834 20.348 11.576C18.348 12.328 16.534 13.508 15.034 15.036C13.5084 16.5343 12.3277 18.347 11.574 20.348C10.836 22.256 10.326 24.44 10.18 27.634C10.036 30.832 10 31.85 10 40C10 48.15 10.034 49.168 10.18 52.368C10.326 55.562 10.834 57.744 11.576 59.652C12.328 61.652 13.508 63.466 15.036 64.966C16.5343 66.4915 18.347 67.6722 20.348 68.426C22.256 69.166 24.438 69.674 27.632 69.82C30.832 69.966 31.852 70 40 70C48.148 70 49.168 69.966 52.368 69.82C55.562 69.674 57.744 69.166 59.652 68.424C61.652 67.672 63.466 66.492 64.966 64.964C66.4916 63.4657 67.6723 61.653 68.426 59.652C69.166 57.744 69.674 55.562 69.82 52.368C69.966 49.168 70 48.148 70 40C70 31.852 69.966 30.832 69.82 27.632C69.674 24.438 69.166 22.256 68.424 20.348C67.6708 18.3461 66.4901 16.5326 64.964 15.034C63.4657 13.5084 61.653 12.3277 59.652 11.574C57.744 10.836 55.56 10.326 52.366 10.18C49.168 10.036 48.15 10 40 10ZM40 15.406C48.01 15.406 48.96 15.436 52.124 15.58C55.048 15.714 56.636 16.2 57.694 16.614C59.094 17.156 60.094 17.808 61.144 18.856C62.194 19.906 62.844 20.906 63.386 22.306C63.798 23.364 64.286 24.952 64.42 27.876C64.564 31.04 64.594 31.99 64.594 40C64.594 48.01 64.564 48.96 64.42 52.124C64.286 55.048 63.8 56.636 63.386 57.694C62.9059 58.9971 62.1398 60.176 61.144 61.144C60.1762 62.14 58.9972 62.9061 57.694 63.386C56.636 63.798 55.048 64.286 52.124 64.42C48.96 64.564 48.012 64.594 40 64.594C31.988 64.594 31.04 64.564 27.876 64.42C24.952 64.286 23.364 63.8 22.306 63.386C21.0029 62.9059 19.824 62.1398 18.856 61.144C17.8604 60.1759 17.0943 58.997 16.614 57.694C16.202 56.636 15.714 55.048 15.58 52.124C15.436 48.96 15.406 48.01 15.406 40C15.406 31.99 15.436 31.04 15.58 27.876C15.714 24.952 16.2 23.364 16.614 22.306C17.156 20.906 17.808 19.906 18.856 18.856C19.8239 17.8601 21.0028 17.094 22.306 16.614C23.364 16.202 24.952 15.714 27.876 15.58C31.04 15.436 31.99 15.406 40 15.406Z" fill="black"/>
<path fill-rule="evenodd" clip-rule="evenodd" d="M40.0001 50.01C38.6855 50.01 37.3839 49.7511 36.1694 49.2481C34.9549 48.745 33.8515 48.0077 32.9219 47.0782C31.9924 46.1487 31.2551 45.0452 30.752 43.8307C30.249 42.6162 29.9901 41.3146 29.9901 40C29.9901 38.6855 30.249 37.3838 30.752 36.1694C31.2551 34.9549 31.9924 33.8514 32.9219 32.9219C33.8515 31.9924 34.9549 31.255 36.1694 30.752C37.3839 30.2489 38.6855 29.99 40.0001 29.99C42.6549 29.99 45.201 31.0447 47.0782 32.9219C48.9555 34.7991 50.0101 37.3452 50.0101 40C50.0101 42.6548 48.9555 45.2009 47.0782 47.0782C45.201 48.9554 42.6549 50.01 40.0001 50.01ZM40.0001 24.58C35.9104 24.58 31.9883 26.2046 29.0965 29.0964C26.2047 31.9883 24.5801 35.9104 24.5801 40C24.5801 44.0897 26.2047 48.0118 29.0965 50.9036C31.9883 53.7954 35.9104 55.42 40.0001 55.42C44.0897 55.42 48.0118 53.7954 50.9037 50.9036C53.7955 48.0118 55.4201 44.0897 55.4201 40C55.4201 35.9104 53.7955 31.9883 50.9037 29.0964C48.0118 26.2046 44.0897 24.58 40.0001 24.58ZM59.9061 24.3C59.9061 25.2667 59.522 26.1939 58.8385 26.8774C58.1549 27.561 57.2278 27.945 56.2611 27.945C55.2944 27.945 54.3672 27.561 53.6837 26.8774C53.0001 26.1939 52.6161 25.2667 52.6161 24.3C52.6161 23.3333 53.0001 22.4062 53.6837 21.7226C54.3672 21.0391 55.2944 20.655 56.2611 20.655C57.2278 20.655 58.1549 21.0391 58.8385 21.7226C59.522 22.4062 59.9061 23.3333 59.9061 24.3Z" fill="black"/>
</svg>