<svg xmlns="http://www.w3.org/2000/svg" width="80" height="80" viewBox="0 0 80 80" fill="none">
  <path d="M70 14.4118V65.5882C70 66.7583 69.5352 67.8805 68.7078 68.7078C67.8805 69.5352 66.7583 70 65.5882 70H14.4118C13.2417 70 12.1195 69.5352 11.2922 68.7078C10.4648 67.8805 10 66.7583 10 65.5882V14.4118C10 13.2417 10.4648 12.1195 11.2922 11.2922C12.1195 10.4648 13.2417 10 14.4118 10H65.5882C66.7583 10 67.8805 10.4648 68.7078 11.2922C69.5352 12.1195 70 13.2417 70 14.4118ZM27.6471 32.9412H18.8235V61.1765H27.6471V32.9412ZM28.4412 23.2353C28.4458 22.5679 28.319 21.9061 28.0678 21.2877C27.8167 20.6693 27.4462 20.1064 26.9776 19.6312C26.5089 19.1559 25.9512 18.7777 25.3364 18.518C24.7215 18.2583 24.0615 18.1223 23.3941 18.1176H23.2353C21.878 18.1176 20.5763 18.6568 19.6166 19.6166C18.6568 20.5763 18.1176 21.878 18.1176 23.2353C18.1176 24.5926 18.6568 25.8943 19.6166 26.854C20.5763 27.8138 21.878 28.3529 23.2353 28.3529C23.9028 28.3694 24.5669 28.2541 25.1899 28.0138C25.8128 27.7734 26.3822 27.4127 26.8657 26.9522C27.3491 26.4916 27.7371 25.9404 28.0074 25.3299C28.2778 24.7194 28.4251 24.0616 28.4412 23.3941V23.2353ZM61.1765 44.0235C61.1765 35.5353 55.7765 32.2353 50.4118 32.2353C48.6553 32.1473 46.9064 32.5215 45.3396 33.3203C43.7728 34.1192 42.4428 35.3149 41.4824 36.7882H41.2353V32.9412H32.9412V61.1765H41.7647V46.1588C41.6372 44.6208 42.1216 43.0945 43.1129 41.9116C44.1042 40.7287 45.5222 39.9847 47.0588 39.8412H47.3941C50.2 39.8412 52.2824 41.6059 52.2824 46.0529V61.1765H61.1059L61.1765 44.0235Z" fill="black"/>
</svg>