<svg xmlns="http://www.w3.org/2000/svg" width="80" height="80" viewBox="0 0 80 80" fill="none">
  <path fill-rule="evenodd" clip-rule="evenodd" d="M10 39.1002C10 22.3794 23.1001 10.0002 40 10.0002C56.8999 10.0002 70 22.3794 70 39.1002C70 55.821 56.8999 68.2002 40 68.2002C36.9645 68.2002 34.0522 67.7994 31.3159 67.047C30.784 66.9007 30.2184 66.942 29.7136 67.1646L23.759 69.7932C22.2014 70.4808 20.4432 69.3732 20.391 67.671L20.2276 62.3346C20.2075 61.677 19.9117 61.0626 19.4217 60.624C13.5844 55.4039 10 47.8463 10 39.1002ZM30.7976 33.6292L21.9851 47.6104C21.1394 48.9521 22.7887 50.4641 24.0521 49.5054L33.5182 42.3213C34.1585 41.8353 35.0434 41.8327 35.6864 42.315L42.6956 47.5719C44.7988 49.1494 47.8006 48.5955 49.2025 46.3714L58.015 32.3901C58.8605 31.0483 57.2113 29.5363 55.9478 30.4951L46.4818 37.6792C45.8414 38.1652 44.9566 38.1678 44.3135 37.6854L37.3045 32.4286C35.2012 30.8512 32.1994 31.405 30.7976 33.6292Z" fill="black"/>
</svg>