<svg width="769" height="562" viewBox="0 0 769 562" fill="none" xmlns="http://www.w3.org/2000/svg">
<g clip-path="url(#clip0_24_906)">
<path d="M508.98 561.72C508.536 524.29 493.356 488.544 466.731 462.233C440.106 435.922 404.182 421.167 366.75 421.167C329.318 421.167 293.394 435.922 266.769 462.233C240.144 488.544 224.964 524.29 224.52 561.72H508.98Z" fill="url(#paint0_linear_24_906)"/>
<path d="M527.83 305.81L530.01 549.41" stroke="black" stroke-width="1.16" stroke-miterlimit="10"/>
<path d="M529.1 274.09C529.1 274.09 506.45 285.19 507.95 285.63C510.08 286.41 517.79 283.19 517.79 283.19C517.79 283.19 521.17 286.43 522.92 286.01C525.118 285.503 527.245 284.723 529.25 283.69" stroke="black" stroke-width="1.56" stroke-miterlimit="10"/>
<path d="M536.1 281.15C536.1 281.15 515.66 290.4 517.16 290.85C519.29 291.62 526.99 288.4 526.99 288.4C526.99 288.4 530.38 291.64 532.13 291.22C534.329 290.718 536.455 289.942 538.46 288.91" stroke="black" stroke-width="1.56" stroke-miterlimit="10"/>
<path d="M473.78 290.61H535.07V294.12H473.78V290.61Z" fill="black"/>
<path d="M477.65 290.71L457.01 244.06L454.59 244.86L474.24 290.61L477.65 290.71Z" stroke="black" stroke-miterlimit="10"/>
<path d="M712.2 355.61L727.31 252.61C727.541 249.955 727.072 247.287 725.95 244.87C725.634 244.165 725.22 243.509 724.72 242.92C723.295 241.317 721.537 240.044 719.57 239.19L688.72 225.83" stroke="black" stroke-width="1.16" stroke-miterlimit="10"/>
<path d="M682.83 182.39C678.83 182.1 676.83 170.69 671.22 168.3C665.61 165.91 656.32 179.42 649.41 179.3C642.5 179.18 640.84 165.2 640.84 165.2C683.74 143.57 691.7 164.07 692.42 166.42C693.14 168.77 697.51 182.2 687.42 189.98C687.42 189.96 686.84 182.67 682.83 182.39Z" fill="black"/>
<path d="M691.1 184.42C695.36 197.03 686.31 200 686.31 200L685.82 220.3C685.792 221.542 686.141 222.763 686.821 223.802C687.502 224.841 688.481 225.649 689.63 226.12" stroke="black" stroke-width="1.16" stroke-miterlimit="10"/>
<path d="M679.78 211.74L662.49 218.87L654.28 209.44L652.28 204.62L651.79 199.24C651.79 199.24 650.12 187.85 649.43 179.24" stroke="black" stroke-width="1.16" stroke-miterlimit="10"/>
<path d="M658.8 214.44C658.87 217.33 658.04 218.67 656.13 220.83C654.22 222.99 651.49 225.03 648.61 225.31" stroke="black" stroke-width="1.16" stroke-miterlimit="10"/>
<path d="M688.68 225.79C667.79 245.36 650.59 227.79 648.24 225.07" stroke="black" stroke-width="1.16" stroke-miterlimit="10"/>
<path d="M649.32 185.68C646.02 186.07 643.49 187.48 643.88 190.79C644.069 192.371 644.877 193.812 646.128 194.796C647.379 195.781 648.969 196.228 650.55 196.04C652.131 195.852 653.572 195.043 654.556 193.792C655.541 192.541 655.988 190.951 655.8 189.37C655.41 186.07 652.6 185.29 649.32 185.68Z" fill="white" stroke="black" stroke-width="0.87" stroke-miterlimit="10"/>
<path d="M665.75 183.73C662.46 184.12 659.92 185.54 660.31 188.84C660.569 190.356 661.4 191.716 662.632 192.637C663.864 193.558 665.403 193.971 666.93 193.79C668.46 193.611 669.862 192.851 670.846 191.667C671.831 190.484 672.323 188.967 672.22 187.43C671.83 184.13 669.05 183.34 665.75 183.73Z" stroke="black" stroke-width="0.87" stroke-miterlimit="10"/>
<path d="M672.25 187.42L689.63 186.01L690.11 184.51L671.42 185.05" stroke="black" stroke-width="0.58" stroke-miterlimit="10"/>
<path d="M661.24 185.59C655.88 184.75 654.14 186.43 654.14 186.43" stroke="black" stroke-width="0.58" stroke-miterlimit="10"/>
<path d="M648.95 225.3C669.6 245 686.95 226.58 686.95 226.58C672.1 235.77 656.73 226.58 655.12 222.09L648.95 225.3Z" fill="black"/>
<path d="M646.1 232.25C648.983 235.056 652.351 237.316 656.04 238.92C659.769 240.452 663.82 241.036 667.83 240.62C671.793 240.136 675.632 238.918 679.15 237.03L681.76 235.59L684.23 233.94C685.061 233.401 685.863 232.817 686.63 232.19L688.97 230.35L686.59 232.14C685.812 232.751 685.001 233.318 684.16 233.84L681.66 235.43L679.04 236.81C675.527 238.608 671.707 239.731 667.78 240.12C663.869 240.446 659.938 239.797 656.34 238.23C652.78 236.589 649.544 234.319 646.79 231.53L646.1 232.25Z" fill="#231F20"/>
<path d="M366.75 296.38L553.6 293.98L553.75 305.56L366.9 307.95" stroke="black" stroke-width="1.16" stroke-miterlimit="10"/>
<path d="M712.86 355.54C696.73 351.59 559.29 320.54 559.29 320.54C553.85 319.48 432.16 460.54 432.16 460.54L444.16 461.27L572.98 369.74C622.72 404.96 696.41 416.4 712.86 355.54Z" fill="black"/>
<path d="M657.78 548.41C634.93 548.7 615.25 552.91 607.03 558.64L708.77 557.33C700.4 551.82 680.64 548.12 657.78 548.41Z" stroke="black" stroke-width="1.56" stroke-miterlimit="10"/>
<path d="M657.78 548.41L661.78 408.99" stroke="black" stroke-width="1.56" stroke-miterlimit="10"/>
<path d="M542.51 557.36L544.61 549.23L527.86 549.44C521.79 549.52 515.81 551.44 510.26 554.18C509.958 554.322 509.714 554.563 509.567 554.862C509.42 555.162 509.379 555.502 509.451 555.828C509.523 556.153 509.704 556.445 509.964 556.654C510.223 556.864 510.547 556.979 510.88 556.98L542.51 557.36Z" stroke="black" stroke-miterlimit="10"/>
<path d="M442.72 468.7L444.82 460.57L428.07 460.78C422 460.86 416.07 462.78 410.48 465.53C410.184 465.675 409.945 465.916 409.802 466.213C409.659 466.51 409.62 466.847 409.692 467.169C409.763 467.491 409.941 467.78 410.197 467.989C410.452 468.197 410.77 468.314 411.1 468.32L442.72 468.7Z" stroke="black" stroke-miterlimit="10"/>
<path d="M597.15 370.56L544.67 549.09L529.96 550.09L559.08 320.73L712.86 355.54L597.15 370.56Z" fill="black"/>
<path d="M718.252 407.756L613.151 409.096C609.594 409.141 606.674 406.297 606.629 402.743C606.584 399.189 609.43 396.272 612.987 396.226L718.088 394.887C721.645 394.842 724.564 397.686 724.61 401.24C724.655 404.793 721.809 407.711 718.252 407.756Z" stroke="black" stroke-miterlimit="10"/>
<path d="M648.95 225.3L634.24 228.36C631.259 228.977 628.543 230.501 626.462 232.723C624.382 234.944 623.04 237.755 622.62 240.77L616.35 288.1" stroke="black" stroke-width="1.16" stroke-miterlimit="10"/>
<path d="M693.28 257.01L672.96 296.19L548.51 279.1L546.9 291.44L685.52 323.66C688.251 324.295 691.117 323.985 693.649 322.781C696.181 321.577 698.23 319.549 699.46 317.03L726.02 262.57" stroke="black" stroke-width="1.16" stroke-miterlimit="10"/>
<path d="M618.64 273.31L529.38 273.91L528.68 284.44" stroke="black" stroke-width="1.16" stroke-miterlimit="10"/>
<path d="M548.36 279.31C548.01 279.24 536.17 280.72 536.17 280.72L538.17 289.41L547.08 290.83" stroke="black" stroke-width="1.16" stroke-miterlimit="10"/>
<path d="M615.04 306.77L612.42 333.32" stroke="black" stroke-width="1.16" stroke-miterlimit="10"/>
<path d="M723.01 269.39L701.01 326.57C699.931 329.364 697.822 331.638 695.117 332.923C692.412 334.209 689.318 334.408 686.47 333.48L614.89 307.92L615.7 307.4L686.54 324.04C688.895 324.594 691.369 324.337 693.56 323.309C695.75 322.282 697.53 320.545 698.61 318.38L723.01 269.39Z" fill="black"/>
<path d="M610.69 287.67L615.86 273.78L618.3 273.84L616.54 288.67L610.69 287.67Z" fill="black"/>
<path d="M280.69 492.36H213.35L220.05 558.73H275.53L280.69 492.36Z" stroke="black" stroke-miterlimit="10"/>
<path d="M315.85 557.66C314.48 557.66 275.72 544.34 275.72 544.34L274.72 558.34L315.85 557.66Z" fill="black"/>
<path d="M276.88 410.64L248.65 434.52C248.65 434.52 249.08 480.8 249.03 483.91" stroke="black" stroke-miterlimit="10"/>
<path d="M255.77 428.49L248.2 377.98L205.32 352.63" stroke="black" stroke-miterlimit="10" stroke-linecap="round"/>
<path d="M230.55 367.54L266.16 299.5L302.72 279.51" stroke="black" stroke-miterlimit="10" stroke-linecap="round"/>
<path d="M262.95 411.01C263.95 412.23 266.57 411.72 266.57 411.72C266.57 411.72 267.67 409.25 266.71 408.04C266.534 407.739 266.295 407.48 266.01 407.28C265.725 407.08 265.4 406.943 265.057 406.88C264.715 406.816 264.362 406.827 264.024 406.911C263.686 406.996 263.37 407.152 263.098 407.369C262.826 407.587 262.603 407.86 262.446 408.171C262.288 408.482 262.2 408.823 262.185 409.171C262.171 409.519 262.233 409.866 262.364 410.189C262.496 410.511 262.696 410.801 262.95 411.04V411.01Z" fill="black"/>
<path d="M266.77 416.46C267.77 415.27 266.72 412.78 266.72 412.78C266.72 412.78 264.07 412.21 263.08 413.4C262.813 413.631 262.6 413.917 262.455 414.239C262.309 414.561 262.236 414.91 262.24 415.263C262.244 415.616 262.324 415.964 262.476 416.282C262.628 416.601 262.847 416.883 263.119 417.108C263.39 417.334 263.708 417.497 264.049 417.587C264.39 417.677 264.747 417.692 265.095 417.63C265.442 417.569 265.772 417.432 266.062 417.23C266.351 417.028 266.593 416.765 266.77 416.46Z" fill="black"/>
<path d="M270.9 413.2C269.49 413.83 267.36 412.2 267.36 412.2C267.36 412.2 267.52 409.5 268.93 408.86C269.223 408.669 269.553 408.543 269.899 408.491C270.245 408.439 270.598 408.463 270.934 408.56C271.27 408.657 271.581 408.826 271.846 409.054C272.111 409.283 272.323 409.565 272.469 409.883C272.614 410.201 272.689 410.547 272.689 410.896C272.688 411.246 272.613 411.592 272.467 411.909C272.321 412.227 272.108 412.509 271.843 412.737C271.577 412.965 271.266 413.133 270.93 413.23L270.9 413.2Z" fill="black"/>
<path d="M281.3 402.97C280.14 403.97 280.79 406.62 280.79 406.62C280.79 406.62 283.32 407.62 284.48 406.55C284.771 406.359 285.017 406.108 285.202 405.814C285.387 405.52 285.507 405.189 285.552 404.845C285.598 404.5 285.569 404.15 285.467 403.817C285.366 403.485 285.194 403.179 284.963 402.919C284.732 402.659 284.448 402.452 284.13 402.312C283.812 402.171 283.467 402.101 283.12 402.106C282.772 402.111 282.43 402.191 282.116 402.34C281.802 402.489 281.523 402.704 281.3 402.97Z" fill="black"/>
<path d="M276.1 407.09C277.35 408.01 279.78 406.83 279.78 406.83C279.78 406.83 280.19 404.15 278.95 403.23C278.704 402.979 278.406 402.784 278.077 402.659C277.748 402.534 277.396 402.482 277.045 402.506C276.694 402.531 276.353 402.631 276.044 402.8C275.736 402.97 275.468 403.204 275.259 403.487C275.05 403.77 274.905 404.095 274.834 404.44C274.763 404.784 274.768 405.14 274.848 405.483C274.928 405.825 275.081 406.146 275.297 406.424C275.514 406.701 275.787 406.929 276.1 407.09Z" fill="black"/>
<path d="M279.57 411.03C278.85 409.66 280.4 407.44 280.4 407.44C280.4 407.44 283.1 407.44 283.82 408.81C284.032 409.092 284.18 409.416 284.254 409.761C284.328 410.106 284.327 410.463 284.249 410.807C284.171 411.151 284.02 411.474 283.805 411.753C283.59 412.033 283.316 412.262 283.004 412.425C282.691 412.588 282.347 412.682 281.995 412.699C281.642 412.715 281.291 412.655 280.964 412.523C280.637 412.39 280.343 412.188 280.102 411.93C279.862 411.672 279.68 411.365 279.57 411.03Z" fill="black"/>
<path d="M271.53 427.38C270.64 426.12 267.96 426.46 267.96 426.46C267.96 426.46 266.72 428.86 267.61 430.13C267.766 430.441 267.987 430.714 268.259 430.931C268.53 431.149 268.844 431.305 269.181 431.39C269.518 431.475 269.87 431.486 270.212 431.423C270.553 431.36 270.878 431.224 271.162 431.025C271.447 430.825 271.685 430.566 271.861 430.266C272.036 429.967 272.145 429.632 272.18 429.287C272.215 428.941 272.175 428.591 272.063 428.262C271.951 427.933 271.769 427.632 271.53 427.38Z" fill="black"/>
<path d="M268.04 421.72C266.98 422.85 267.88 425.4 267.88 425.4C267.88 425.4 270.48 426.12 271.54 424.99C271.811 424.773 272.032 424.5 272.188 424.19C272.345 423.88 272.432 423.54 272.446 423.193C272.459 422.846 272.397 422.5 272.265 422.179C272.133 421.858 271.933 421.57 271.679 421.333C271.426 421.096 271.124 420.916 270.795 420.806C270.465 420.696 270.116 420.658 269.771 420.695C269.426 420.731 269.093 420.842 268.794 421.019C268.495 421.196 268.238 421.435 268.04 421.72Z" fill="black"/>
<path d="M263.72 424.74C265.17 424.19 267.19 425.97 267.19 425.97C267.19 425.97 266.88 428.66 265.43 429.21C265.127 429.382 264.79 429.486 264.443 429.515C264.096 429.545 263.747 429.499 263.419 429.381C263.091 429.263 262.793 429.076 262.544 428.832C262.295 428.589 262.102 428.294 261.978 427.969C261.853 427.643 261.801 427.295 261.823 426.947C261.846 426.6 261.943 426.261 262.108 425.955C262.274 425.648 262.503 425.381 262.781 425.171C263.06 424.962 263.38 424.815 263.72 424.74Z" fill="black"/>
<path d="M242.1 415.68C243.64 415.5 244.61 412.98 244.61 412.98C244.61 412.98 243.09 410.74 241.55 410.92C241.197 410.901 240.844 410.96 240.516 411.092C240.188 411.223 239.893 411.425 239.651 411.683C239.409 411.94 239.226 412.248 239.115 412.583C239.004 412.919 238.967 413.275 239.008 413.626C239.048 413.977 239.165 414.315 239.35 414.616C239.534 414.918 239.782 415.175 240.077 415.371C240.371 415.566 240.705 415.695 241.054 415.749C241.404 415.802 241.761 415.779 242.1 415.68Z" fill="black"/>
<path d="M248.77 415.31C248.28 413.84 245.61 413.41 245.61 413.41C245.61 413.41 243.74 415.36 244.23 416.83C244.291 417.172 244.425 417.498 244.623 417.784C244.821 418.07 245.078 418.31 245.377 418.487C245.676 418.665 246.01 418.776 246.356 418.813C246.701 418.85 247.051 418.812 247.381 418.701C247.711 418.591 248.013 418.411 248.267 418.173C248.521 417.935 248.72 417.646 248.852 417.324C248.984 417.002 249.045 416.655 249.031 416.308C249.017 415.96 248.928 415.62 248.77 415.31Z" fill="black"/>
<path d="M248.17 410.07C247.97 411.6 245.43 412.54 245.43 412.54C245.43 412.54 243.22 410.98 243.43 409.45C243.425 409.103 243.495 408.759 243.635 408.441C243.775 408.124 243.982 407.84 244.241 407.609C244.5 407.378 244.806 407.206 245.137 407.104C245.469 407.002 245.819 406.972 246.163 407.017C246.507 407.062 246.838 407.181 247.132 407.365C247.426 407.548 247.677 407.793 247.869 408.083C248.06 408.372 248.187 408.7 248.241 409.042C248.294 409.385 248.274 409.736 248.18 410.07H248.17Z" fill="black"/>
<path d="M239.98 388.07C241.51 387.9 242.49 385.37 242.49 385.37C242.49 385.37 240.96 383.14 239.43 383.31C239.077 383.291 238.724 383.35 238.396 383.482C238.068 383.613 237.773 383.815 237.531 384.073C237.289 384.33 237.106 384.637 236.995 384.973C236.884 385.309 236.847 385.664 236.888 386.015C236.928 386.367 237.045 386.705 237.23 387.006C237.414 387.308 237.663 387.565 237.957 387.761C238.251 387.956 238.585 388.085 238.934 388.139C239.284 388.192 239.641 388.169 239.98 388.07Z" fill="black"/>
<path d="M246.62 387.7C246.13 386.23 243.46 385.8 243.46 385.8C243.46 385.8 241.59 387.75 242.08 389.22C242.141 389.562 242.275 389.888 242.473 390.174C242.671 390.46 242.928 390.7 243.227 390.877C243.526 391.055 243.86 391.166 244.206 391.203C244.552 391.24 244.901 391.202 245.231 391.091C245.561 390.981 245.863 390.801 246.117 390.563C246.371 390.325 246.57 390.036 246.702 389.714C246.834 389.392 246.895 389.045 246.881 388.698C246.867 388.35 246.778 388.01 246.62 387.7Z" fill="black"/>
<path d="M246.02 382.46C245.82 383.99 243.28 384.93 243.28 384.93C243.28 384.93 241.07 383.37 241.28 381.84C241.275 381.493 241.345 381.149 241.485 380.831C241.625 380.514 241.832 380.23 242.091 379.999C242.35 379.769 242.656 379.596 242.988 379.494C243.319 379.392 243.669 379.362 244.013 379.407C244.357 379.452 244.688 379.571 244.982 379.755C245.276 379.938 245.528 380.184 245.719 380.473C245.91 380.763 246.037 381.09 246.091 381.433C246.144 381.775 246.124 382.126 246.03 382.46H246.02Z" fill="black"/>
<path d="M238.5 436C239.94 436.57 241.98 434.8 241.98 434.8C241.98 434.8 241.7 432.11 240.26 431.55C239.959 431.375 239.623 431.267 239.277 431.233C238.93 431.199 238.58 431.241 238.251 431.355C237.922 431.469 237.621 431.653 237.369 431.894C237.118 432.135 236.921 432.428 236.793 432.752C236.665 433.076 236.608 433.424 236.626 433.772C236.645 434.12 236.739 434.459 236.901 434.768C237.063 435.076 237.29 435.346 237.566 435.558C237.842 435.771 238.16 435.922 238.5 436Z" fill="black"/>
<path d="M244.54 438.8C244.79 437.28 242.64 435.64 242.64 435.64C242.64 435.64 240.07 436.48 239.81 438C239.697 438.333 239.657 438.687 239.693 439.037C239.73 439.387 239.843 439.725 240.023 440.028C240.203 440.33 240.447 440.59 240.737 440.789C241.028 440.988 241.358 441.121 241.705 441.18C242.052 441.239 242.408 441.221 242.748 441.129C243.087 441.037 243.403 440.871 243.673 440.645C243.942 440.419 244.159 440.137 244.309 439.818C244.459 439.499 244.538 439.152 244.54 438.8Z" fill="black"/>
<path d="M246.47 433.9C245.57 435.16 242.89 434.79 242.89 434.79C242.89 434.79 241.68 432.37 242.58 431.11C242.739 430.8 242.963 430.529 243.236 430.314C243.509 430.098 243.826 429.945 244.164 429.863C244.502 429.781 244.854 429.773 245.196 429.84C245.537 429.906 245.861 430.046 246.143 430.249C246.426 430.451 246.662 430.713 246.834 431.015C247.007 431.317 247.112 431.653 247.143 431.999C247.174 432.346 247.13 432.695 247.014 433.023C246.898 433.351 246.712 433.65 246.47 433.9Z" fill="black"/>
<path d="M257.61 457.43C256.08 457.66 255.2 460.22 255.2 460.22C255.2 460.22 256.81 462.4 258.34 462.16C258.688 462.159 259.032 462.082 259.348 461.936C259.664 461.79 259.945 461.577 260.171 461.312C260.398 461.047 260.564 460.737 260.659 460.402C260.754 460.067 260.776 459.715 260.723 459.371C260.67 459.027 260.543 458.698 260.351 458.407C260.16 458.117 259.907 457.871 259.612 457.686C259.316 457.502 258.984 457.384 258.639 457.34C258.293 457.296 257.943 457.326 257.61 457.43Z" fill="black"/>
<path d="M250.98 458.05C251.53 459.5 254.21 459.83 254.21 459.83C254.21 459.83 256.01 457.83 255.47 456.36C255.4 456.015 255.257 455.689 255.049 455.405C254.841 455.122 254.573 454.886 254.265 454.716C253.957 454.545 253.616 454.444 253.265 454.418C252.914 454.393 252.562 454.443 252.232 454.567C251.903 454.691 251.604 454.885 251.357 455.136C251.11 455.387 250.921 455.688 250.802 456.019C250.682 456.351 250.637 456.704 250.668 457.054C250.699 457.405 250.805 457.745 250.98 458.05Z" fill="black"/>
<path d="M251.78 463.26C251.92 461.72 254.43 460.69 254.43 460.69C254.43 460.69 256.69 462.17 256.55 463.69C256.567 464.036 256.509 464.382 256.38 464.704C256.251 465.026 256.055 465.317 255.804 465.557C255.553 465.796 255.254 465.979 254.926 466.092C254.599 466.206 254.251 466.248 253.905 466.216C253.56 466.183 253.226 466.077 252.926 465.904C252.625 465.731 252.365 465.495 252.164 465.213C251.962 464.931 251.823 464.609 251.757 464.268C251.691 463.928 251.699 463.577 251.78 463.24V463.26Z" fill="black"/>
<path d="M258.35 386.78C257.17 387.78 257.75 390.41 257.75 390.41C257.75 390.41 260.26 391.41 261.44 390.41C261.735 390.226 261.986 389.982 262.178 389.692C262.37 389.403 262.497 389.075 262.551 388.732C262.605 388.39 262.584 388.039 262.491 387.705C262.398 387.371 262.234 387.06 262.01 386.795C261.786 386.53 261.507 386.316 261.193 386.168C260.879 386.019 260.537 385.941 260.19 385.936C259.843 385.932 259.499 386.002 259.181 386.143C258.864 386.283 258.581 386.49 258.35 386.75V386.78Z" fill="black"/>
<path d="M253.02 390.76C254.24 391.71 256.7 390.59 256.7 390.59C256.7 390.59 257.19 387.93 255.97 386.98C255.731 386.721 255.439 386.516 255.113 386.381C254.787 386.246 254.436 386.184 254.083 386.198C253.731 386.213 253.386 386.303 253.072 386.465C252.759 386.626 252.484 386.853 252.267 387.131C252.05 387.409 251.896 387.731 251.816 388.074C251.736 388.418 251.731 388.775 251.803 389.12C251.875 389.465 252.021 389.791 252.231 390.074C252.441 390.357 252.71 390.591 253.02 390.76Z" fill="black"/>
<path d="M256.41 394.79C255.73 393.4 257.34 391.22 257.34 391.22C257.34 391.22 260.04 391.3 260.72 392.69C260.925 392.978 261.064 393.306 261.128 393.653C261.193 394 261.181 394.356 261.094 394.698C261.007 395.04 260.846 395.359 260.624 395.632C260.401 395.906 260.121 396.128 259.804 396.282C259.487 396.437 259.14 396.52 258.787 396.527C258.434 396.534 258.084 396.464 257.761 396.322C257.438 396.18 257.15 395.969 256.917 395.705C256.683 395.44 256.511 395.128 256.41 394.79Z" fill="black"/>
<path d="M309.23 269.82C308.05 270.82 308.63 273.46 308.63 273.46C308.63 273.46 311.13 274.46 312.32 273.46C312.622 273.279 312.881 273.035 313.08 272.744C313.278 272.454 313.411 272.123 313.469 271.776C313.527 271.429 313.509 271.074 313.416 270.734C313.323 270.395 313.158 270.079 312.931 269.81C312.704 269.541 312.422 269.324 312.103 269.175C311.784 269.025 311.437 268.947 311.085 268.945C310.733 268.943 310.385 269.018 310.065 269.164C309.745 269.31 309.46 269.523 309.23 269.79V269.82Z" fill="black"/>
<path d="M303.9 273.8C305.12 274.8 307.58 273.64 307.58 273.64C307.58 273.64 308.07 270.98 306.85 270.03C306.611 269.777 306.32 269.579 305.997 269.45C305.674 269.32 305.327 269.261 304.979 269.278C304.632 269.294 304.292 269.386 303.983 269.545C303.673 269.705 303.402 269.929 303.188 270.204C302.973 270.478 302.821 270.795 302.74 271.133C302.659 271.472 302.652 271.824 302.72 272.165C302.787 272.506 302.928 272.829 303.132 273.111C303.335 273.393 303.597 273.628 303.9 273.8Z" fill="black"/>
<path d="M307.29 277.84C306.61 276.45 308.21 274.27 308.21 274.27C308.21 274.27 310.91 274.35 311.59 275.74C311.788 276.027 311.922 276.353 311.982 276.696C312.043 277.039 312.029 277.391 311.94 277.728C311.852 278.065 311.692 278.379 311.471 278.649C311.251 278.919 310.974 279.137 310.661 279.29C310.348 279.443 310.005 279.527 309.657 279.535C309.309 279.543 308.963 279.476 308.643 279.339C308.323 279.201 308.036 278.996 307.803 278.737C307.569 278.479 307.394 278.172 307.29 277.84Z" fill="black"/>
<path d="M301.62 291.2C300.8 289.88 298.1 290.08 298.1 290.08C298.1 290.08 296.73 292.41 297.55 293.73C297.69 294.047 297.896 294.33 298.155 294.561C298.414 294.791 298.719 294.963 299.05 295.065C299.381 295.168 299.73 295.197 300.074 295.153C300.417 295.109 300.748 294.991 301.042 294.808C301.336 294.625 301.587 294.381 301.779 294.093C301.971 293.804 302.099 293.478 302.154 293.136C302.208 292.794 302.189 292.444 302.097 292.11C302.005 291.776 301.842 291.466 301.62 291.2Z" fill="black"/>
<path d="M298.44 285.35C297.32 286.42 298.08 289.02 298.08 289.02C298.08 289.02 300.64 289.88 301.76 288.81C302.051 288.61 302.295 288.35 302.475 288.047C302.655 287.744 302.767 287.405 302.803 287.054C302.839 286.704 302.798 286.349 302.683 286.016C302.569 285.682 302.383 285.378 302.139 285.124C301.895 284.869 301.598 284.671 301.27 284.543C300.941 284.414 300.589 284.359 300.237 284.381C299.885 284.402 299.542 284.5 299.232 284.667C298.922 284.835 298.651 285.068 298.44 285.35Z" fill="black"/>
<path d="M293.96 288.13C295.44 287.66 297.36 289.55 297.36 289.55C297.36 289.55 296.9 292.22 295.43 292.69C295.119 292.842 294.778 292.925 294.431 292.934C294.084 292.943 293.74 292.878 293.421 292.742C293.102 292.606 292.815 292.403 292.582 292.147C292.348 291.891 292.172 291.588 292.065 291.258C291.959 290.928 291.925 290.579 291.965 290.234C292.005 289.89 292.119 289.558 292.299 289.261C292.478 288.965 292.72 288.71 293.006 288.515C293.293 288.32 293.618 288.188 293.96 288.13Z" fill="black"/>
<path d="M276.51 283.73C277.23 285.1 279.93 285.12 279.93 285.12C279.93 285.12 281.48 282.9 280.77 281.53C280.661 281.194 280.481 280.886 280.242 280.627C280.002 280.368 279.71 280.165 279.383 280.03C279.057 279.896 278.706 279.834 278.353 279.849C278.001 279.864 277.656 279.956 277.343 280.118C277.029 280.28 276.755 280.508 276.538 280.786C276.322 281.065 276.169 281.387 276.09 281.731C276.011 282.075 276.007 282.432 276.079 282.777C276.152 283.122 276.299 283.447 276.51 283.73Z" fill="black"/>
<path d="M279.22 289.81C280.42 288.81 279.87 286.18 279.87 286.18C279.87 286.18 277.39 285.12 276.19 286.1C275.874 286.268 275.598 286.504 275.384 286.791C275.169 287.078 275.021 287.409 274.949 287.76C274.878 288.111 274.885 288.474 274.97 288.822C275.055 289.17 275.216 289.495 275.441 289.774C275.666 290.052 275.95 290.278 276.273 290.434C276.595 290.59 276.948 290.672 277.307 290.676C277.665 290.679 278.02 290.603 278.345 290.454C278.671 290.304 278.959 290.084 279.19 289.81H279.22Z" fill="black"/>
<path d="M283.9 287.39C282.4 287.75 280.63 285.7 280.63 285.7C280.63 285.7 281.3 283.08 282.8 282.7C283.123 282.572 283.47 282.514 283.817 282.532C284.165 282.55 284.504 282.642 284.812 282.803C285.12 282.963 285.391 283.188 285.604 283.463C285.818 283.737 285.97 284.055 286.049 284.393C286.129 284.731 286.135 285.083 286.067 285.424C285.999 285.765 285.858 286.087 285.654 286.368C285.45 286.65 285.188 286.884 284.885 287.056C284.582 287.227 284.246 287.33 283.9 287.36V287.39Z" fill="black"/>
<path d="M256.72 296.9C257.93 297.9 260.41 296.78 260.41 296.78C260.41 296.78 260.92 294.13 259.71 293.16C259.473 292.909 259.184 292.711 258.863 292.581C258.543 292.451 258.199 292.391 257.853 292.405C257.508 292.419 257.169 292.507 256.861 292.663C256.552 292.819 256.281 293.039 256.064 293.309C255.848 293.578 255.692 293.891 255.607 294.226C255.521 294.562 255.509 294.911 255.57 295.251C255.631 295.592 255.765 295.915 255.961 296.199C256.158 296.484 256.413 296.723 256.71 296.9H256.72Z" fill="black"/>
<path d="M261.66 301.36C262.36 299.97 260.79 297.78 260.79 297.78C260.79 297.78 258.08 297.78 257.38 299.2C257.172 299.485 257.027 299.811 256.958 300.157C256.888 300.503 256.895 300.86 256.977 301.203C257.06 301.546 257.216 301.867 257.435 302.144C257.654 302.421 257.931 302.646 258.246 302.805C258.561 302.964 258.906 303.053 259.259 303.065C259.612 303.076 259.963 303.011 260.288 302.874C260.612 302.736 260.904 302.53 261.141 302.268C261.378 302.007 261.555 301.697 261.66 301.36Z" fill="black"/>
<path d="M264.96 297.24C263.73 298.18 261.28 297.03 261.28 297.03C261.28 297.03 260.83 294.37 262.06 293.43C262.303 293.181 262.597 292.988 262.921 292.863C263.246 292.738 263.593 292.684 263.94 292.706C264.287 292.727 264.625 292.823 264.932 292.987C265.239 293.151 265.506 293.379 265.717 293.655C265.928 293.932 266.076 294.251 266.152 294.59C266.229 294.929 266.231 295.281 266.159 295.621C266.087 295.961 265.943 296.282 265.736 296.561C265.529 296.841 265.265 297.072 264.96 297.24Z" fill="black"/>
<path d="M241.1 327.15C242.31 328.15 244.79 327.03 244.79 327.03C244.79 327.03 245.31 324.38 244.1 323.41C243.865 323.147 243.575 322.939 243.251 322.799C242.927 322.66 242.576 322.592 242.224 322.602C241.871 322.612 241.525 322.698 241.209 322.855C240.893 323.012 240.615 323.236 240.394 323.511C240.174 323.786 240.015 324.106 239.931 324.448C239.846 324.791 239.837 325.147 239.905 325.494C239.972 325.84 240.113 326.168 240.32 326.454C240.526 326.74 240.793 326.977 241.1 327.15Z" fill="black"/>
<path d="M246.1 331.61C246.8 330.23 245.23 328.03 245.23 328.03C245.23 328.03 242.52 328.03 241.83 329.45C241.628 329.734 241.489 330.058 241.424 330.4C241.359 330.743 241.368 331.095 241.452 331.433C241.535 331.772 241.691 332.088 241.908 332.361C242.125 332.633 242.398 332.856 242.709 333.013C243.02 333.171 243.361 333.259 243.709 333.272C244.058 333.285 244.404 333.223 244.726 333.09C245.048 332.957 245.338 332.756 245.575 332.5C245.812 332.245 245.991 331.941 246.1 331.61Z" fill="black"/>
<path d="M249.38 327.49C248.15 328.43 245.7 327.28 245.7 327.28C245.7 327.28 245.25 324.62 246.48 323.68C246.723 323.431 247.017 323.238 247.341 323.113C247.666 322.988 248.013 322.934 248.36 322.956C248.707 322.977 249.045 323.073 249.352 323.237C249.659 323.4 249.926 323.629 250.137 323.905C250.348 324.182 250.496 324.501 250.572 324.84C250.649 325.179 250.651 325.531 250.579 325.871C250.507 326.211 250.363 326.532 250.156 326.811C249.949 327.09 249.685 327.322 249.38 327.49Z" fill="black"/>
<path d="M279.31 304.13C278.31 302.95 275.68 303.52 275.68 303.52C275.68 303.52 274.68 306.02 275.68 307.21C275.86 307.512 276.104 307.771 276.394 307.97C276.684 308.168 277.014 308.302 277.36 308.36C277.707 308.419 278.062 308.402 278.402 308.31C278.741 308.218 279.057 308.054 279.326 307.828C279.596 307.603 279.813 307.321 279.964 307.003C280.114 306.685 280.193 306.339 280.197 305.987C280.2 305.635 280.127 305.287 279.982 304.967C279.838 304.646 279.625 304.361 279.36 304.13H279.31Z" fill="black"/>
<path d="M275.35 298.78C274.35 300 275.5 302.47 275.5 302.47C275.5 302.47 278.16 302.97 279.12 301.75C279.369 301.51 279.564 301.219 279.692 300.898C279.82 300.576 279.877 300.231 279.861 299.885C279.844 299.54 279.754 299.201 279.597 298.893C279.439 298.585 279.218 298.314 278.947 298.099C278.676 297.884 278.362 297.728 278.027 297.644C277.691 297.559 277.341 297.548 277.001 297.609C276.66 297.671 276.337 297.805 276.052 298.001C275.768 298.198 275.528 298.453 275.35 298.75V298.78Z" fill="black"/>
<path d="M271.3 302.16C272.7 301.49 274.87 303.1 274.87 303.1C274.87 303.1 274.78 305.8 273.39 306.48C273.102 306.681 272.773 306.817 272.427 306.879C272.081 306.941 271.726 306.927 271.385 306.838C271.045 306.749 270.728 306.588 270.457 306.365C270.185 306.141 269.965 305.862 269.812 305.546C269.659 305.229 269.576 304.883 269.57 304.532C269.564 304.18 269.633 303.831 269.775 303.509C269.916 303.188 270.126 302.9 270.389 302.667C270.653 302.434 270.963 302.261 271.3 302.16Z" fill="black"/>
<path d="M252.59 350.23C251.59 349.04 248.95 349.61 248.95 349.61C248.95 349.61 247.95 352.11 248.95 353.3C249.128 353.605 249.371 353.868 249.661 354.069C249.951 354.271 250.281 354.407 250.629 354.469C250.977 354.53 251.334 354.514 251.675 354.423C252.017 354.332 252.334 354.167 252.605 353.941C252.877 353.715 253.095 353.432 253.246 353.112C253.397 352.793 253.476 352.444 253.479 352.091C253.481 351.738 253.406 351.388 253.26 351.067C253.113 350.745 252.898 350.46 252.63 350.23H252.59Z" fill="black"/>
<path d="M248.63 344.9C247.63 346.11 248.78 348.58 248.78 348.58C248.78 348.58 251.44 349.08 252.39 347.86C252.631 347.619 252.818 347.33 252.939 347.012C253.06 346.694 253.113 346.354 253.094 346.014C253.074 345.674 252.984 345.342 252.827 345.039C252.671 344.737 252.453 344.471 252.187 344.259C251.921 344.046 251.613 343.892 251.283 343.807C250.954 343.722 250.61 343.707 250.274 343.764C249.938 343.821 249.619 343.948 249.335 344.136C249.052 344.325 248.812 344.572 248.63 344.86V344.9Z" fill="black"/>
<path d="M244.58 348.25C245.97 347.58 248.15 349.19 248.15 349.19C248.15 349.19 248.06 351.89 246.67 352.57C246.382 352.771 246.053 352.908 245.707 352.969C245.361 353.031 245.006 353.017 244.666 352.928C244.325 352.84 244.008 352.678 243.737 352.455C243.465 352.232 243.245 351.952 243.092 351.635C242.939 351.319 242.857 350.973 242.85 350.622C242.844 350.27 242.913 349.921 243.055 349.6C243.196 349.278 243.406 348.99 243.669 348.757C243.933 348.524 244.243 348.351 244.58 348.25Z" fill="black"/>
<path d="M266.31 318.51C264.8 318.16 263.05 320.21 263.05 320.21C263.05 320.21 263.73 322.83 265.24 323.21C265.567 323.346 265.919 323.409 266.272 323.394C266.626 323.38 266.971 323.288 267.286 323.126C267.6 322.964 267.875 322.735 268.092 322.456C268.309 322.177 268.462 321.854 268.541 321.509C268.62 321.164 268.623 320.806 268.55 320.46C268.476 320.114 268.328 319.789 268.115 319.506C267.903 319.223 267.631 318.99 267.319 318.824C267.008 318.657 266.663 318.56 266.31 318.54V318.51Z" fill="black"/>
<path d="M259.93 316.64C259.93 318.19 262.27 319.48 262.27 319.48C262.27 319.48 264.69 318.27 264.72 316.72C264.775 316.378 264.756 316.027 264.664 315.693C264.572 315.358 264.409 315.048 264.186 314.782C263.963 314.516 263.686 314.301 263.373 314.151C263.06 314.002 262.718 313.922 262.371 313.916C262.025 313.91 261.68 313.979 261.362 314.118C261.044 314.256 260.76 314.462 260.529 314.72C260.297 314.979 260.124 315.284 260.021 315.615C259.917 315.946 259.887 316.296 259.93 316.64Z" fill="black"/>
<path d="M258.74 321.78C259.45 320.4 262.15 320.37 262.15 320.37C262.15 320.37 263.72 322.57 263.01 323.95C262.899 324.279 262.718 324.58 262.48 324.833C262.243 325.086 261.953 325.285 261.632 325.416C261.31 325.547 260.964 325.607 260.617 325.593C260.27 325.578 259.931 325.49 259.621 325.332C259.312 325.175 259.04 324.953 258.823 324.681C258.607 324.41 258.452 324.095 258.369 323.758C258.285 323.421 258.275 323.07 258.339 322.728C258.403 322.387 258.54 322.064 258.74 321.78Z" fill="black"/>
<path d="M197.19 351.47C198.63 352.05 200.69 350.29 200.69 350.29C200.69 350.29 200.42 347.6 198.99 347.02C198.689 346.839 198.352 346.726 198.003 346.687C197.654 346.649 197.301 346.687 196.968 346.798C196.635 346.909 196.33 347.092 196.074 347.332C195.818 347.573 195.617 347.866 195.485 348.191C195.354 348.517 195.294 348.867 195.311 349.218C195.327 349.569 195.42 349.912 195.582 350.224C195.744 350.535 195.972 350.808 196.249 351.023C196.527 351.239 196.848 351.391 197.19 351.47Z" fill="black"/>
<path d="M203.2 354.32C203.48 352.79 201.34 351.14 201.34 351.14C201.34 351.14 198.76 351.95 198.49 353.48C198.377 353.81 198.338 354.161 198.373 354.508C198.409 354.855 198.519 355.19 198.696 355.49C198.874 355.79 199.114 356.049 199.4 356.248C199.686 356.447 200.013 356.581 200.356 356.643C200.699 356.704 201.052 356.69 201.389 356.603C201.727 356.515 202.041 356.355 202.311 356.135C202.582 355.914 202.801 355.638 202.954 355.325C203.108 355.011 203.191 354.669 203.2 354.32Z" fill="black"/>
<path d="M205.18 349.43C204.27 350.68 201.6 350.28 201.6 350.28C201.6 350.28 200.4 347.86 201.31 346.61C201.472 346.302 201.698 346.033 201.973 345.82C202.248 345.608 202.565 345.457 202.904 345.378C203.242 345.299 203.594 345.295 203.935 345.364C204.275 345.433 204.597 345.575 204.878 345.779C205.159 345.984 205.392 346.247 205.563 346.55C205.733 346.853 205.836 347.189 205.864 347.535C205.893 347.882 205.847 348.23 205.729 348.557C205.611 348.884 205.424 349.182 205.18 349.43Z" fill="black"/>
<path d="M210.56 369.12C212.05 368.71 212.62 366.06 212.62 366.06C212.62 366.06 210.77 364.06 209.28 364.51C208.934 364.552 208.601 364.667 208.303 364.85C208.006 365.032 207.752 365.276 207.557 365.566C207.363 365.855 207.234 366.183 207.178 366.528C207.123 366.872 207.143 367.224 207.236 367.56C207.329 367.896 207.494 368.208 207.719 368.475C207.944 368.741 208.224 368.956 208.54 369.104C208.855 369.252 209.199 369.33 209.548 369.333C209.897 369.336 210.242 369.263 210.56 369.12Z" fill="black"/>
<path d="M217.1 367.72C216.38 366.34 213.68 366.34 213.68 366.34C213.68 366.34 212.13 368.55 212.84 369.93C212.951 370.264 213.132 370.569 213.373 370.826C213.613 371.083 213.906 371.284 214.232 371.416C214.557 371.549 214.908 371.609 215.259 371.593C215.61 371.576 215.954 371.484 216.266 371.322C216.578 371.16 216.851 370.933 217.066 370.655C217.282 370.377 217.435 370.056 217.514 369.714C217.593 369.371 217.597 369.016 217.526 368.671C217.454 368.327 217.309 368.003 217.1 367.72Z" fill="black"/>
<path d="M215.65 362.64C215.65 364.18 213.33 365.5 213.33 365.5C213.33 365.5 210.9 364.31 210.86 362.76C210.792 362.413 210.801 362.056 210.886 361.712C210.97 361.369 211.129 361.048 211.35 360.773C211.571 360.497 211.85 360.273 212.167 360.116C212.483 359.959 212.831 359.873 213.184 359.864C213.538 359.856 213.889 359.924 214.213 360.065C214.537 360.205 214.827 360.415 215.062 360.68C215.296 360.944 215.471 361.256 215.572 361.595C215.674 361.933 215.701 362.29 215.65 362.64Z" fill="black"/>
<path d="M221.1 352C221.19 353.54 223.65 354.66 223.65 354.66C223.65 354.66 225.97 353.26 225.88 351.72C225.911 351.374 225.866 351.025 225.75 350.697C225.633 350.37 225.448 350.071 225.206 349.822C224.963 349.572 224.67 349.378 224.346 349.252C224.022 349.126 223.675 349.071 223.328 349.092C222.981 349.112 222.642 349.207 222.335 349.37C222.028 349.533 221.76 349.76 221.548 350.036C221.337 350.312 221.187 350.63 221.11 350.969C221.033 351.308 221.029 351.66 221.1 352Z" fill="black"/>
<path d="M221.1 358.65C222.59 358.25 223.17 355.6 223.17 355.6C223.17 355.6 221.33 353.6 219.83 354.03C219.478 354.065 219.138 354.177 218.834 354.357C218.53 354.537 218.269 354.782 218.069 355.073C217.869 355.365 217.735 355.696 217.676 356.045C217.618 356.394 217.636 356.751 217.73 357.092C217.823 357.433 217.99 357.749 218.219 358.019C218.448 358.289 218.732 358.505 219.053 358.654C219.374 358.802 219.723 358.878 220.077 358.878C220.43 358.877 220.78 358.8 221.1 358.65Z" fill="black"/>
<path d="M226.4 358.35C224.88 358.06 224.09 355.47 224.09 355.47C224.09 355.47 225.77 353.35 227.29 353.64C227.643 353.647 227.99 353.732 228.307 353.887C228.624 354.042 228.904 354.264 229.126 354.539C229.349 354.813 229.509 355.132 229.595 355.474C229.682 355.817 229.692 356.174 229.627 356.521C229.561 356.867 229.421 357.196 229.216 357.483C229.01 357.77 228.745 358.009 228.437 358.183C228.13 358.357 227.789 358.462 227.437 358.491C227.085 358.52 226.731 358.472 226.4 358.35Z" fill="black"/>
<path d="M286.1 483.9H208.1C207.83 483.9 207.564 483.96 207.321 484.076C207.077 484.193 206.863 484.362 206.694 484.572C206.525 484.783 206.406 485.028 206.344 485.291C206.283 485.554 206.282 485.827 206.34 486.09L207.34 490.93C207.427 491.332 207.649 491.692 207.969 491.951C208.289 492.209 208.689 492.35 209.1 492.35H284.17C284.536 492.351 284.894 492.241 285.196 492.034C285.498 491.827 285.73 491.532 285.86 491.19L287.69 486.34C287.789 486.075 287.825 485.79 287.793 485.508C287.762 485.227 287.666 484.956 287.511 484.719C287.356 484.481 287.148 484.284 286.903 484.141C286.658 483.999 286.383 483.917 286.1 483.9V483.9Z" stroke="black" stroke-miterlimit="10"/>
<path d="M279.9 499.98C279.04 499.98 213.35 492.36 213.35 492.36H280.69L279.9 499.98Z" fill="black"/>
<path d="M765.84 558.64V81.9C765.841 71.2135 763.738 60.6314 759.649 50.7579C755.56 40.8845 749.567 31.9133 742.011 24.3563C734.455 16.7994 725.484 10.8048 715.611 6.71497C705.738 2.62512 695.157 0.520142 684.47 0.520142H595.92" stroke="black" stroke-miterlimit="10"/>
<path d="M509.43 24.34H695.68L632.01 4.7402C610.841 -1.77846 588.171 -1.56194 567.13 5.36007L509.43 24.34Z" fill="black"/>
</g>
<defs>
<linearGradient id="paint0_linear_24_906" x1="366.75" y1="421.167" x2="366.75" y2="561.72" gradientUnits="userSpaceOnUse">
<stop stop-color="#8CD2D2"/>
<stop offset="1" stop-color="#8CD2D2" stop-opacity="0"/>
</linearGradient>
<clipPath id="clip0_24_906">
<rect width="768.29" height="561.71" fill="white" transform="matrix(-1 0 0 1 768.29 0)"/>
</clipPath>
</defs>
</svg>
