<svg xmlns="http://www.w3.org/2000/svg" width="80" height="80" viewBox="0 0 80 80" fill="none">
  <path fill-rule="evenodd" clip-rule="evenodd" d="M73.3334 40C73.3334 58.4095 58.4096 73.3333 40.0001 73.3333C21.5906 73.3333 6.66675 58.4095 6.66675 40C6.66675 21.5905 21.5906 6.66663 40.0001 6.66663C58.4096 6.66663 73.3334 21.5905 73.3334 40ZM41.1945 31.2748C37.9524 32.6233 31.4726 35.4144 21.7553 39.6481C20.1773 40.2756 19.3507 40.8895 19.2755 41.4897C19.1483 42.5042 20.4187 42.9036 22.1486 43.4476C22.3839 43.5216 22.6277 43.5982 22.8776 43.6795C24.5796 44.2327 26.869 44.8799 28.0592 44.9057C29.1388 44.929 30.3437 44.4839 31.674 43.5704C40.7532 37.4417 45.44 34.3439 45.7342 34.2771C45.9418 34.23 46.2295 34.1708 46.4244 34.344C46.6193 34.5173 46.6001 34.8453 46.5795 34.9333C46.4536 35.4698 41.467 40.1058 38.8865 42.5049C38.082 43.2529 37.5113 43.7834 37.3947 43.9046C37.1334 44.176 36.867 44.4327 36.6111 44.6795C35.0299 46.2037 33.8442 47.3467 36.6767 49.2133C38.0379 50.1103 39.1271 50.8521 40.2137 51.5921C41.4005 52.4002 42.5841 53.2063 44.1156 54.2102C44.5058 54.466 44.8784 54.7316 45.2414 54.9904C46.6224 55.975 47.8632 56.8595 49.3961 56.7185C50.2868 56.6365 51.2069 55.7989 51.6741 53.301C52.7784 47.3976 54.949 34.6068 55.4506 29.336C55.4946 28.8742 55.4393 28.2832 55.3949 28.0238C55.3505 27.7644 55.2577 27.3947 54.9205 27.1211C54.5211 26.797 53.9046 26.7287 53.6288 26.7336C52.3751 26.7556 50.4516 27.4245 41.1945 31.2748Z" fill="black"/>
</svg>