<svg xmlns="http://www.w3.org/2000/svg" width="80" height="80" viewBox="0 0 80 80" fill="none">
  <path d="M66.5083 26.4003C66.5489 26.988 66.5489 27.5757 66.5489 28.1688C66.5489 46.2418 52.7904 67.0855 27.6323 67.0855V67.0746C20.2005 67.0855 12.9231 64.9567 6.66675 60.9429C7.74739 61.0729 8.83345 61.1379 9.92222 61.1406C16.0811 61.146 22.0639 59.0795 26.9091 55.2743C21.0563 55.1632 15.924 51.3471 14.131 45.776C16.1813 46.1714 18.2938 46.0902 20.3061 45.5404C13.9252 44.2512 9.3345 38.6448 9.3345 32.1339C9.3345 32.0743 9.3345 32.0174 9.3345 31.9606C11.2358 33.0195 13.3646 33.6073 15.5421 33.6723C9.53221 29.6557 7.67968 21.6606 11.3089 15.4097C18.2532 23.9546 28.499 29.1493 39.4977 29.6991C38.3954 24.9486 39.9012 19.9706 43.4546 16.6312C48.9635 11.4527 57.6276 11.7182 62.806 17.2243C65.8691 16.6203 68.805 15.4963 71.4917 13.9038C70.4707 17.0699 68.3338 19.7593 65.4791 21.4683C68.1902 21.1487 70.839 20.4229 73.3334 19.3152C71.4971 22.0669 69.1842 24.4638 66.5083 26.4003Z" fill="black"/>
</svg>