<svg xmlns="http://www.w3.org/2000/svg" width="80" height="80" viewBox="0 0 80 80" fill="none">
  <path d="M40.1258 10.9678C23.6587 10.9678 10.2574 23.8755 10.2516 39.7387C10.2477 44.8116 11.6258 49.7626 14.2387 54.1233L10 69.0323L25.8381 65.0316C30.2436 67.3362 35.1423 68.5383 40.1142 68.5349H40.1258C56.5929 68.5349 69.9942 55.6252 70 39.762C70.0039 32.0781 66.8993 24.8452 61.2574 19.4084C55.6174 13.9697 48.1174 10.9697 40.1258 10.9678ZM40.1258 63.6749H40.1161C35.6606 63.6749 31.2903 62.5213 27.4774 60.342L26.5677 59.8233L17.1729 62.1962L19.6813 53.3704L19.091 52.4665C16.6114 48.6848 15.2915 44.2608 15.2935 39.7387C15.2994 26.5523 26.44 15.8278 40.1355 15.8278C46.7664 15.8297 53.0006 18.3207 57.6903 22.84C62.38 27.3594 64.96 33.3691 64.9561 39.76C64.9503 52.9465 53.8116 63.6749 40.1239 63.6749H40.1258ZM53.7458 45.762C52.9987 45.4039 49.329 43.6639 48.6439 43.422C47.9606 43.1839 47.4632 43.06 46.9658 43.78C46.4703 44.5 45.0381 46.12 44.6045 46.5981C44.1671 47.0781 43.7316 47.1362 42.9845 46.7781C42.2374 46.4181 39.8316 45.6594 36.9826 43.2091C34.7626 41.3045 33.2645 38.951 32.829 38.2291C32.3935 37.511 32.7826 37.122 33.1561 36.7639C33.491 36.4445 33.9032 35.9258 34.2748 35.5058C34.6464 35.0858 34.7703 34.7858 35.0219 34.3058C35.2697 33.8278 35.1458 33.4058 34.9581 33.0478C34.7703 32.6858 33.28 29.1478 32.6548 27.7097C32.051 26.3084 31.4355 26.4962 30.9768 26.4729C30.5413 26.4536 30.0458 26.4478 29.5445 26.4478C29.051 26.4478 28.24 26.6278 27.5548 27.3478C26.8716 28.0678 24.9419 29.8058 24.9419 33.3439C24.9419 36.8839 27.6168 40.302 27.9903 40.782C28.3639 41.26 33.2548 48.5239 40.7432 51.64C42.5239 52.3774 43.9135 52.8207 44.9994 53.1536C46.7877 53.7013 48.4155 53.622 49.7006 53.4381C51.1329 53.231 54.1174 51.7 54.7368 50.022C55.36 48.3439 55.36 46.9039 55.1742 46.6039C54.9923 46.3039 54.4929 46.1239 53.7458 45.762Z" fill="black"/>
</svg>