<svg xmlns="http://www.w3.org/2000/svg" width="80" height="80" viewBox="0 0 80 80" fill="none">
  <path fill-rule="evenodd" clip-rule="evenodd" d="M65.9734 18.049C68.8404 18.8192 71.1082 21.0871 71.8784 23.954C73.2905 29.1744 73.3333 40.0002 73.3333 40.0002C73.3333 40.0002 73.3333 50.8689 71.9212 56.0465C71.151 58.9134 68.8832 61.1812 66.0162 61.9515C60.8386 63.3635 40 63.3635 40 63.3635C40 63.3635 19.1613 63.3635 13.9837 61.9515C11.1168 61.1812 8.84891 58.9134 8.07869 56.0465C6.66663 50.8261 6.66663 40.0002 6.66663 40.0002C6.66663 40.0002 6.66663 29.1744 8.0359 23.9968C8.80612 21.1299 11.074 18.862 13.9409 18.0918C19.1185 16.6797 39.9572 16.637 39.9572 16.637C39.9572 16.637 60.7959 16.637 65.9734 18.049ZM50.6119 40.0003L33.3247 50.0131V29.9874L50.6119 40.0003Z" fill="black"/>
</svg>